<svg width="181" height="181" viewBox="0 0 181 181" fill="none" xmlns="http://www.w3.org/2000/svg">
<rect width="181" height="181" fill="#002B45"/>
<path d="M148.29 70.9966C131.618 70.9966 118.092 83.312 118.092 98.49C118.092 113.668 131.618 125.983 148.29 125.983C164.963 125.983 178.489 113.668 178.489 98.49C178.489 83.312 164.963 70.9966 148.29 70.9966ZM148.306 118.308C135.393 118.308 126.506 110.349 126.506 98.6001C126.506 86.8509 135.393 78.8923 148.306 78.8923C161.219 78.8923 170.106 86.8509 170.106 98.6001C170.106 110.349 161.219 118.308 148.306 118.308Z" fill="#FBF6EF"/>
<path d="M59.3959 3.01573C59.3802 3.37748 59.333 3.73924 59.333 4.101C59.333 21.6855 59.333 39.2857 59.333 56.8702C59.333 57.9869 59.333 57.9869 58.2163 57.9869C55.857 57.9869 53.4977 57.9554 51.1385 58.0026C50.3678 58.0183 50.179 57.7667 50.179 57.0117C50.1947 44.7435 50.1947 32.4752 50.1947 20.207C50.1947 19.8767 50.1947 19.5464 50.1947 19.2161C50.1318 19.2004 50.0689 19.1689 50.006 19.1532C49.833 19.4206 49.6285 19.6722 49.4712 19.9396C44.2179 28.6689 38.9646 37.3983 33.727 46.1433C33.3652 46.7567 32.9563 47.0241 32.2328 46.9927C30.9745 46.9297 29.7162 46.9455 28.4579 46.9927C27.9074 47.0084 27.6086 46.8039 27.3412 46.3321C22.198 37.4454 17.039 28.5588 11.8801 19.688C11.6756 19.3262 11.424 18.9959 11.188 18.6341C11.1094 18.6656 11.0307 18.6813 10.9521 18.7128C10.9364 19.0274 10.9049 19.3577 10.9049 19.6722C10.9049 32.0977 10.9049 44.5233 10.9049 56.9488C10.9049 57.9712 10.9049 57.9869 9.86684 57.9869C7.53902 57.9869 5.19547 57.9869 2.86765 57.9869C2.58454 57.9869 2.30142 58.0341 2.01831 58.0498C2.01831 39.6946 2.01831 21.3552 2.01831 3C4.59779 3 7.16153 3 9.72528 3C9.88257 3.29884 10.0241 3.61341 10.1971 3.89652C16.7402 14.2459 23.2833 24.611 29.8263 34.9603C29.9993 35.2277 30.1723 35.4637 30.4555 35.8569C30.77 35.4794 31.0689 35.1963 31.2733 34.866C36.2436 27.0804 41.2295 19.2947 46.184 11.5091C47.977 8.67799 49.7543 5.84686 51.5474 3.01573C54.1583 3.01573 56.7693 3.01573 59.3959 3.01573Z" fill="#FBF6EF"/>
<path d="M26.5365 70.9966C26.678 71.091 26.8196 71.2482 26.9769 71.2482C29.6979 71.264 32.356 71.6572 34.8569 72.7582C41.5258 75.6837 45.5994 80.7168 46.7633 87.9205C48.4463 98.4114 41.2269 108.226 30.8146 110.05C29.1317 110.349 27.3858 110.381 25.6557 110.397C21.2045 110.444 16.7376 110.412 12.2865 110.412C11.9719 110.412 11.6573 110.412 11.2012 110.412C11.2012 110.758 11.2012 111.057 11.2012 111.356C11.2012 115.917 11.1854 120.478 11.2169 125.04C11.2169 125.81 10.981 126.015 10.2417 125.999C7.85101 125.952 5.47601 125.983 3.08527 125.983C2.06292 125.983 2.06292 125.983 2.06292 124.93C2.06292 107.314 2.06292 89.7135 2.06292 72.0976C2.06292 71.7358 2.01573 71.3741 2 71.0123C10.1788 70.9966 18.3577 70.9966 26.5365 70.9966ZM10.9338 101.997C11.2326 102.013 11.4686 102.045 11.6888 102.045C17.1466 102.045 22.5886 102.045 28.0464 102.045C28.3138 102.045 28.5655 102.045 28.8328 102.013C35.2973 101.054 39.5597 94.9511 38.2228 88.5653C36.996 82.7458 31.837 79.6315 27.3701 79.7102C22.2111 79.7888 17.0365 79.7259 11.8775 79.7259C11.5787 79.7259 11.2641 79.7259 10.9338 79.7259C10.9338 87.1969 10.9338 94.5579 10.9338 101.997Z" fill="#FBF6EF"/>
<path d="M101.39 3C101.579 3.50331 101.736 4.03808 101.972 4.52567C107.823 17.423 113.69 30.3204 119.541 43.2178C121.633 47.8105 123.725 52.419 125.801 57.0274C125.911 57.2791 126.021 57.5465 126.163 57.9082C113.942 57.9082 101.815 57.9082 89.5624 57.9082C89.9084 57.2319 90.2387 56.6028 90.5533 55.9894C91.4498 54.2749 92.3306 52.5448 93.2743 50.8461C93.4002 50.6102 93.8248 50.4372 94.1237 50.4372C99.4399 50.4215 104.772 50.4215 110.088 50.4215C111.079 50.4215 112.07 50.4215 113.265 50.4215C107.76 37.9802 102.318 25.6962 96.7975 13.2078C96.5616 13.6167 96.4043 13.8212 96.3099 14.0729C90.3174 27.8825 84.3563 41.7079 78.348 55.5018C77.074 58.443 77.7818 57.9397 74.6361 57.9712C72.5127 57.9869 70.3894 57.9712 68.266 57.9712C68.0144 57.9712 67.7627 57.9712 67.3538 57.9712C67.9514 56.65 68.4705 55.4546 69.0053 54.275C76.5078 37.5241 84.0102 20.7732 91.497 4.02235C91.6386 3.69205 91.7015 3.34603 91.8116 3C94.9887 3 98.1974 3 101.39 3Z" fill="#FBF6EF"/>
<path d="M105.957 70.9966C104.007 73.985 102.057 76.9577 100.106 79.9304C96.0642 86.0488 92.022 92.1829 87.964 98.2856C87.5865 98.8518 87.5865 99.245 87.9955 99.7955C94.0824 108.195 100.138 116.625 106.209 125.04C106.366 125.276 106.524 125.512 106.76 125.873C106.414 125.921 106.193 125.968 105.989 125.968C103.189 125.968 100.374 125.999 97.5741 125.952C97.2124 125.952 96.7091 125.685 96.4889 125.386C91.3614 118.355 86.2496 111.324 81.2007 104.247C80.5402 103.334 79.911 102.957 78.7786 102.988C75.9002 103.067 73.0062 103.02 70.1279 103.02C69.8133 103.02 69.5145 103.02 69.0898 103.02C69.0898 103.429 69.0898 103.775 69.0898 104.105C69.0898 111.073 69.0741 118.056 69.1055 125.024C69.1055 125.763 68.9168 126.015 68.1461 125.999C65.7868 125.952 63.4275 125.952 61.0683 125.999C60.2976 126.015 60.0931 125.779 60.0931 125.024C60.1088 107.377 60.1088 89.745 60.1088 72.0976C60.1088 71.7358 60.0616 71.3741 60.0459 71.0123C63.0815 71.0123 66.1328 71.0123 69.1684 71.0123C69.137 71.2168 69.1055 71.4213 69.1055 71.6257C69.1055 79.1754 69.1055 86.7251 69.1055 94.2748C69.1055 94.495 69.1527 94.7152 69.1684 94.9826C69.5616 94.9826 69.8762 94.9826 70.1751 94.9826C73.4309 94.9826 76.6709 94.9511 79.9267 94.9983C80.6503 95.014 81.0592 94.7466 81.4367 94.1647C86.344 86.6622 91.267 79.1754 96.19 71.6886C96.3316 71.4684 96.426 71.2325 96.5361 70.9966C99.666 70.9966 102.812 70.9966 105.957 70.9966Z" fill="#FBF6EF"/>
</svg>
